<svg width="16" height="16" viewBox="0 0 16 16" fill="none" xmlns="http://www.w3.org/2000/svg">
<path d="M2.01884 12V3.636H4.77884C5.45884 3.636 6.00684 3.736 6.42284 3.936C6.83884 4.128 7.14284 4.408 7.33484 4.776C7.53484 5.136 7.63484 5.564 7.63484 6.06C7.63484 6.828 7.41484 7.424 6.97484 7.848C6.54284 8.264 5.92284 8.496 5.11484 8.544C4.93084 8.552 4.74284 8.556 4.55084 8.556C4.35884 8.556 4.19484 8.556 4.05884 8.556H3.56684V12H2.01884ZM6.56684 12L4.46684 8.376L6.05084 8.184L8.35484 12H6.56684ZM3.56684 7.164H4.62284C4.88684 7.164 5.12684 7.136 5.34284 7.08C5.56684 7.016 5.74684 6.908 5.88284 6.756C6.01884 6.596 6.08684 6.372 6.08684 6.084C6.08684 5.788 6.01884 5.564 5.88284 5.412C5.74684 5.26 5.56684 5.16 5.34284 5.112C5.12684 5.056 4.88684 5.028 4.62284 5.028H3.56684V7.164ZM11.665 12.12C11.153 12.12 10.713 12.036 10.345 11.868C9.97697 11.7 9.67297 11.476 9.43297 11.196C9.20097 10.908 9.02897 10.584 8.91697 10.224C8.80497 9.856 8.74897 9.472 8.74897 9.072C8.74897 8.688 8.80497 8.312 8.91697 7.944C9.02897 7.576 9.19697 7.244 9.42097 6.948C9.64497 6.652 9.93297 6.416 10.285 6.24C10.645 6.056 11.073 5.964 11.569 5.964C12.033 5.964 12.437 6.044 12.781 6.204C13.125 6.356 13.409 6.572 13.633 6.852C13.857 7.124 14.025 7.444 14.137 7.812C14.257 8.18 14.317 8.572 14.317 8.988C14.317 9.044 14.313 9.124 14.305 9.228C14.305 9.324 14.297 9.428 14.281 9.54H10.237C10.277 9.964 10.433 10.284 10.705 10.5C10.985 10.716 11.333 10.824 11.749 10.824C12.053 10.824 12.349 10.772 12.637 10.668C12.925 10.556 13.181 10.4 13.405 10.2L14.149 11.208C13.869 11.424 13.605 11.6 13.357 11.736C13.109 11.872 12.849 11.968 12.577 12.024C12.313 12.088 12.009 12.12 11.665 12.12ZM12.841 8.796C12.857 8.732 12.869 8.668 12.877 8.604C12.893 8.54 12.901 8.48 12.901 8.424C12.901 8.256 12.869 8.1 12.805 7.956C12.741 7.804 12.653 7.672 12.541 7.56C12.429 7.448 12.293 7.364 12.133 7.308C11.981 7.244 11.805 7.212 11.605 7.212C11.309 7.212 11.061 7.272 10.861 7.392C10.661 7.512 10.509 7.668 10.405 7.86C10.309 8.044 10.249 8.236 10.225 8.436H13.345L12.841 8.796Z" fill="#FF375C"/>
</svg>
